<svg id="visual" viewBox="0 0 540 960" width="540" height="960" xmlns="http://www.w3.org/2000/svg" xmlns:xlink="http://www.w3.org/1999/xlink" version="1.1"><g><g transform="translate(146 572)"><path d="M0 -12.8L11.1 -6.4L11.1 6.4L0 12.8L-11.1 6.4L-11.1 -6.4Z" stroke="#7a50ad" fill="none" stroke-width="1"></path></g><g transform="translate(169 876)"><path d="M0 -10L8.7 -5L8.7 5L0 10L-8.7 5L-8.7 -5Z" stroke="#7a50ad" fill="none" stroke-width="1"></path></g><g transform="translate(479 651)"><path d="M0 -10L8.7 -5L8.7 5L0 10L-8.7 5L-8.7 -5Z" stroke="#7a50ad" fill="none" stroke-width="1"></path></g><g transform="translate(187 904)"><path d="M0 -9L7.8 -4.5L7.8 4.5L0 9L-7.8 4.5L-7.8 -4.5Z" stroke="#7a50ad" fill="none" stroke-width="1"></path></g><g transform="translate(303 427)"><path d="M0 -6L5.2 -3L5.2 3L0 6L-5.2 3L-5.2 -3Z" stroke="#7a50ad" fill="none" stroke-width="1"></path></g><g transform="translate(123 389)"><path d="M0 -6L5.2 -3L5.2 3L0 6L-5.2 3L-5.2 -3Z" stroke="#7a50ad" fill="none" stroke-width="1"></path></g><g transform="translate(400 744)"><path d="M0 -5L4.3 -2.5L4.3 2.5L0 5L-4.3 2.5L-4.3 -2.5Z" stroke="#7a50ad" fill="none" stroke-width="1"></path></g><g transform="translate(128 850)"><path d="M0 -2L1.7 -1L1.7 1L0 2L-1.7 1L-1.7 -1Z" stroke="#7a50ad" fill="none" stroke-width="1"></path></g><g transform="translate(377 22)"><path d="M0 -5L4.3 -2.5L4.3 2.5L0 5L-4.3 2.5L-4.3 -2.5Z" stroke="#7a50ad" fill="none" stroke-width="1"></path></g><g transform="translate(21 492)"><path d="M0 -9L7.8 -4.5L7.8 4.5L0 9L-7.8 4.5L-7.8 -4.5Z" stroke="#7a50ad" fill="none" stroke-width="1"></path></g><g transform="translate(49 353)"><path d="M0 -3L2.6 -1.5L2.6 1.5L0 3L-2.6 1.5L-2.6 -1.5Z" stroke="#7a50ad" fill="none" stroke-width="1"></path></g><g transform="translate(251 870)"><path d="M0 -9L7.8 -4.5L7.8 4.5L0 9L-7.8 4.5L-7.8 -4.5Z" stroke="#7a50ad" fill="none" stroke-width="1"></path></g><g transform="translate(64 791)"><path d="M0 -10L8.7 -5L8.7 5L0 10L-8.7 5L-8.7 -5Z" stroke="#7a50ad" fill="none" stroke-width="1"></path></g><g transform="translate(433 454)"><path d="M0 -10L8.7 -5L8.7 5L0 10L-8.7 5L-8.7 -5Z" stroke="#7a50ad" fill="none" stroke-width="1"></path></g><g transform="translate(474 108)"><path d="M0 -11L9.5 -5.5L9.5 5.5L0 11L-9.5 5.5L-9.5 -5.5Z" stroke="#7a50ad" fill="none" stroke-width="1"></path></g><g transform="translate(96 143)"><path d="M0 -4L3.5 -2L3.5 2L0 4L-3.5 2L-3.5 -2Z" stroke="#7a50ad" fill="none" stroke-width="1"></path></g><g transform="translate(252 667)"><path d="M0 -3L2.6 -1.5L2.6 1.5L0 3L-2.6 1.5L-2.6 -1.5Z" stroke="#7a50ad" fill="none" stroke-width="1"></path></g><g transform="translate(35 518)"><path d="M0 -8L6.9 -4L6.9 4L0 8L-6.9 4L-6.9 -4Z" stroke="#7a50ad" fill="none" stroke-width="1"></path></g><g transform="translate(433 816)"><path d="M0 -4L3.5 -2L3.5 2L0 4L-3.5 2L-3.5 -2Z" stroke="#7a50ad" fill="none" stroke-width="1"></path></g><g transform="translate(138 205)"><path d="M0 -9L7.8 -4.5L7.8 4.5L0 9L-7.8 4.5L-7.8 -4.5Z" stroke="#7a50ad" fill="none" stroke-width="1"></path></g><g transform="translate(21 244)"><path d="M0 -7L6.1 -3.5L6.1 3.5L0 7L-6.1 3.5L-6.1 -3.5Z" stroke="#7a50ad" fill="none" stroke-width="1"></path></g><g transform="translate(321 764)"><path d="M0 -5L4.3 -2.5L4.3 2.5L0 5L-4.3 2.5L-4.3 -2.5Z" stroke="#7a50ad" fill="none" stroke-width="1"></path></g><g transform="translate(385 862)"><path d="M0 -10L8.7 -5L8.7 5L0 10L-8.7 5L-8.7 -5Z" stroke="#7a50ad" fill="none" stroke-width="1"></path></g><g transform="translate(203 365)"><path d="M0 -1L0.9 -0.5L0.9 0.5L0 1L-0.9 0.5L-0.9 -0.5Z" stroke="#7a50ad" fill="none" stroke-width="1"></path></g><g transform="translate(45 190)"><path d="M0 -4L3.5 -2L3.5 2L0 4L-3.5 2L-3.5 -2Z" stroke="#7a50ad" fill="none" stroke-width="1"></path></g><g transform="translate(387 571)"><path d="M0 -3L2.6 -1.5L2.6 1.5L0 3L-2.6 1.5L-2.6 -1.5Z" stroke="#7a50ad" fill="none" stroke-width="1"></path></g><g transform="translate(492 909)"><path d="M0 -2L1.7 -1L1.7 1L0 2L-1.7 1L-1.7 -1Z" stroke="#7a50ad" fill="none" stroke-width="1"></path></g><g transform="translate(160 146)"><path d="M0 -10L8.7 -5L8.7 5L0 10L-8.7 5L-8.7 -5Z" stroke="#7a50ad" fill="none" stroke-width="1"></path></g><g transform="translate(233 789)"><path d="M0 -9L7.8 -4.5L7.8 4.5L0 9L-7.8 4.5L-7.8 -4.5Z" stroke="#7a50ad" fill="none" stroke-width="1"></path></g><g transform="translate(525 749)"><path d="M0 -1L0.9 -0.5L0.9 0.5L0 1L-0.9 0.5L-0.9 -0.5Z" stroke="#7a50ad" fill="none" stroke-width="1"></path></g><g transform="translate(19 315)"><path d="M0 -7L6.1 -3.5L6.1 3.5L0 7L-6.1 3.5L-6.1 -3.5Z" stroke="#7a50ad" fill="none" stroke-width="1"></path></g><g transform="translate(248 735)"><path d="M0 -6L5.2 -3L5.2 3L0 6L-5.2 3L-5.2 -3Z" stroke="#7a50ad" fill="none" stroke-width="1"></path></g><g transform="translate(341 233)"><path d="M0 -6L5.2 -3L5.2 3L0 6L-5.2 3L-5.2 -3Z" stroke="#7a50ad" fill="none" stroke-width="1"></path></g><g transform="translate(516 391)"><path d="M0 -6L5.2 -3L5.2 3L0 6L-5.2 3L-5.2 -3Z" stroke="#7a50ad" fill="none" stroke-width="1"></path></g><g transform="translate(306 485)"><path d="M0 -3L2.6 -1.5L2.6 1.5L0 3L-2.6 1.5L-2.6 -1.5Z" stroke="#7a50ad" fill="none" stroke-width="1"></path></g><g transform="translate(107 83)"><path d="M0 -6L5.2 -3L5.2 3L0 6L-5.2 3L-5.2 -3Z" stroke="#7a50ad" fill="none" stroke-width="1"></path></g><g transform="translate(294 708)"><path d="M0 -11L9.5 -5.5L9.5 5.5L0 11L-9.5 5.5L-9.5 -5.5Z" stroke="#7a50ad" fill="none" stroke-width="1"></path></g><g transform="translate(220 397)"><path d="M0 -8L6.9 -4L6.9 4L0 8L-6.9 4L-6.9 -4Z" stroke="#7a50ad" fill="none" stroke-width="1"></path></g><g transform="translate(81 466)"><path d="M0 -9L7.8 -4.5L7.8 4.5L0 9L-7.8 4.5L-7.8 -4.5Z" stroke="#7a50ad" fill="none" stroke-width="1"></path></g><g transform="translate(418 541)"><path d="M0 -2L1.7 -1L1.7 1L0 2L-1.7 1L-1.7 -1Z" stroke="#7a50ad" fill="none" stroke-width="1"></path></g><g transform="translate(500 781)"><path d="M0 -9L7.8 -4.5L7.8 4.5L0 9L-7.8 4.5L-7.8 -4.5Z" stroke="#7a50ad" fill="none" stroke-width="1"></path></g><g transform="translate(300 207)"><path d="M0 -7L6.1 -3.5L6.1 3.5L0 7L-6.1 3.5L-6.1 -3.5Z" stroke="#7a50ad" fill="none" stroke-width="1"></path></g><g transform="translate(353 909)"><path d="M0 -3L2.6 -1.5L2.6 1.5L0 3L-2.6 1.5L-2.6 -1.5Z" stroke="#7a50ad" fill="none" stroke-width="1"></path></g><g transform="translate(179 594)"><path d="M0 -7L6.1 -3.5L6.1 3.5L0 7L-6.1 3.5L-6.1 -3.5Z" stroke="#7a50ad" fill="none" stroke-width="1"></path></g><g transform="translate(507 56)"><path d="M0 -1L0.9 -0.5L0.9 0.5L0 1L-0.9 0.5L-0.9 -0.5Z" stroke="#7a50ad" fill="none" stroke-width="1"></path></g><g transform="translate(228 138)"><path d="M0 -5L4.3 -2.5L4.3 2.5L0 5L-4.3 2.5L-4.3 -2.5Z" stroke="#7a50ad" fill="none" stroke-width="1"></path></g><g transform="translate(112 715)"><path d="M0 -7L6.1 -3.5L6.1 3.5L0 7L-6.1 3.5L-6.1 -3.5Z" stroke="#7a50ad" fill="none" stroke-width="1"></path></g><g transform="translate(290 247)"><path d="M0 -3L2.6 -1.5L2.6 1.5L0 3L-2.6 1.5L-2.6 -1.5Z" stroke="#7a50ad" fill="none" stroke-width="1"></path></g><g transform="translate(524 674)"><path d="M0 -8L6.9 -4L6.9 4L0 8L-6.9 4L-6.9 -4Z" stroke="#7a50ad" fill="none" stroke-width="1"></path></g><g transform="translate(254 304)"><path d="M0 -4L3.5 -2L3.5 2L0 4L-3.5 2L-3.5 -2Z" stroke="#7a50ad" fill="none" stroke-width="1"></path></g><g transform="translate(422 127)"><path d="M0 -3L2.6 -1.5L2.6 1.5L0 3L-2.6 1.5L-2.6 -1.5Z" stroke="#7a50ad" fill="none" stroke-width="1"></path></g><g transform="translate(525 851)"><path d="M0 -7L6.1 -3.5L6.1 3.5L0 7L-6.1 3.5L-6.1 -3.5Z" stroke="#7a50ad" fill="none" stroke-width="1"></path></g><g transform="translate(215 915)"><path d="M0 -11L9.5 -5.5L9.5 5.5L0 11L-9.5 5.5L-9.5 -5.5Z" stroke="#7a50ad" fill="none" stroke-width="1"></path></g><g transform="translate(84 876)"><path d="M0 -8L6.9 -4L6.9 4L0 8L-6.9 4L-6.9 -4Z" stroke="#7a50ad" fill="none" stroke-width="1"></path></g><g transform="translate(296 640)"><path d="M0 -6L5.2 -3L5.2 3L0 6L-5.2 3L-5.2 -3Z" stroke="#7a50ad" fill="none" stroke-width="1"></path></g><g transform="translate(285 860)"><path d="M0 -3L2.6 -1.5L2.6 1.5L0 3L-2.6 1.5L-2.6 -1.5Z" stroke="#7a50ad" fill="none" stroke-width="1"></path></g><g transform="translate(399 242)"><path d="M0 -7L6.1 -3.5L6.1 3.5L0 7L-6.1 3.5L-6.1 -3.5Z" stroke="#7a50ad" fill="none" stroke-width="1"></path></g><g transform="translate(46 939)"><path d="M0 -5L4.3 -2.5L4.3 2.5L0 5L-4.3 2.5L-4.3 -2.5Z" stroke="#7a50ad" fill="none" stroke-width="1"></path></g><g transform="translate(225 324)"><path d="M0 -2L1.7 -1L1.7 1L0 2L-1.7 1L-1.7 -1Z" stroke="#7a50ad" fill="none" stroke-width="1"></path></g><g transform="translate(460 368)"><path d="M0 -2L1.7 -1L1.7 1L0 2L-1.7 1L-1.7 -1Z" stroke="#7a50ad" fill="none" stroke-width="1"></path></g><g transform="translate(60 220)"><path d="M0 -7L6.1 -3.5L6.1 3.5L0 7L-6.1 3.5L-6.1 -3.5Z" stroke="#7a50ad" fill="none" stroke-width="1"></path></g><g transform="translate(511 352)"><path d="M0 -7L6.1 -3.5L6.1 3.5L0 7L-6.1 3.5L-6.1 -3.5Z" stroke="#7a50ad" fill="none" stroke-width="1"></path></g><g transform="translate(240 565)"><path d="M0 -8L6.9 -4L6.9 4L0 8L-6.9 4L-6.9 -4Z" stroke="#7a50ad" fill="none" stroke-width="1"></path></g><g transform="translate(438 504)"><path d="M0 -1L0.9 -0.5L0.9 0.5L0 1L-0.9 0.5L-0.9 -0.5Z" stroke="#7a50ad" fill="none" stroke-width="1"></path></g><g transform="translate(227 235)"><path d="M0 -8L6.9 -4L6.9 4L0 8L-6.9 4L-6.9 -4Z" stroke="#7a50ad" fill="none" stroke-width="1"></path></g><g transform="translate(130 884)"><path d="M0 -8L6.9 -4L6.9 4L0 8L-6.9 4L-6.9 -4Z" stroke="#7a50ad" fill="none" stroke-width="1"></path></g><g transform="translate(263 846)"><path d="M0 -5L4.3 -2.5L4.3 2.5L0 5L-4.3 2.5L-4.3 -2.5Z" stroke="#7a50ad" fill="none" stroke-width="1"></path></g><g transform="translate(257 523)"><path d="M0 -8L6.9 -4L6.9 4L0 8L-6.9 4L-6.9 -4Z" stroke="#7a50ad" fill="none" stroke-width="1"></path></g><g transform="translate(34 732)"><path d="M0 -9L7.8 -4.5L7.8 4.5L0 9L-7.8 4.5L-7.8 -4.5Z" stroke="#7a50ad" fill="none" stroke-width="1"></path></g><g transform="translate(270 597)"><path d="M0 -7L6.1 -3.5L6.1 3.5L0 7L-6.1 3.5L-6.1 -3.5Z" stroke="#7a50ad" fill="none" stroke-width="1"></path></g><g transform="translate(151 304)"><path d="M0 -3L2.6 -1.5L2.6 1.5L0 3L-2.6 1.5L-2.6 -1.5Z" stroke="#7a50ad" fill="none" stroke-width="1"></path></g><g transform="translate(523 433)"><path d="M0 -5L4.3 -2.5L4.3 2.5L0 5L-4.3 2.5L-4.3 -2.5Z" stroke="#7a50ad" fill="none" stroke-width="1"></path></g><g transform="translate(341 74)"><path d="M0 -3L2.6 -1.5L2.6 1.5L0 3L-2.6 1.5L-2.6 -1.5Z" stroke="#7a50ad" fill="none" stroke-width="1"></path></g><g transform="translate(517 573)"><path d="M0 -11L9.5 -5.5L9.5 5.5L0 11L-9.5 5.5L-9.5 -5.5Z" stroke="#7a50ad" fill="none" stroke-width="1"></path></g><g transform="translate(495 732)"><path d="M0 -3L2.6 -1.5L2.6 1.5L0 3L-2.6 1.5L-2.6 -1.5Z" stroke="#7a50ad" fill="none" stroke-width="1"></path></g><g transform="translate(26 139)"><path d="M0 -11L9.5 -5.5L9.5 5.5L0 11L-9.5 5.5L-9.5 -5.5Z" stroke="#7a50ad" fill="none" stroke-width="1"></path></g><g transform="translate(293 121)"><path d="M0 -5L4.3 -2.5L4.3 2.5L0 5L-4.3 2.5L-4.3 -2.5Z" stroke="#7a50ad" fill="none" stroke-width="1"></path></g><g transform="translate(497 431)"><path d="M0 -8L6.9 -4L6.9 4L0 8L-6.9 4L-6.9 -4Z" stroke="#7a50ad" fill="none" stroke-width="1"></path></g><g transform="translate(480 224)"><path d="M0 -1L0.9 -0.5L0.9 0.5L0 1L-0.9 0.5L-0.9 -0.5Z" stroke="#7a50ad" fill="none" stroke-width="1"></path></g><g transform="translate(161 475)"><path d="M0 -5L4.3 -2.5L4.3 2.5L0 5L-4.3 2.5L-4.3 -2.5Z" stroke="#7a50ad" fill="none" stroke-width="1"></path></g><g transform="translate(116 587)"><path d="M0 -9L7.8 -4.5L7.8 4.5L0 9L-7.8 4.5L-7.8 -4.5Z" stroke="#7a50ad" fill="none" stroke-width="1"></path></g><g transform="translate(377 927)"><path d="M0 -8L6.9 -4L6.9 4L0 8L-6.9 4L-6.9 -4Z" stroke="#7a50ad" fill="none" stroke-width="1"></path></g><g transform="translate(365 195)"><path d="M0 -2L1.7 -1L1.7 1L0 2L-1.7 1L-1.7 -1Z" stroke="#7a50ad" fill="none" stroke-width="1"></path></g><g transform="translate(148 662)"><path d="M0 -7L6.1 -3.5L6.1 3.5L0 7L-6.1 3.5L-6.1 -3.5Z" stroke="#7a50ad" fill="none" stroke-width="1"></path></g><g transform="translate(435 354)"><path d="M0 -1L0.9 -0.5L0.9 0.5L0 1L-0.9 0.5L-0.9 -0.5Z" stroke="#7a50ad" fill="none" stroke-width="1"></path></g><g transform="translate(100 646)"><path d="M0 -5L4.3 -2.5L4.3 2.5L0 5L-4.3 2.5L-4.3 -2.5Z" stroke="#7a50ad" fill="none" stroke-width="1"></path></g><g transform="translate(349 539)"><path d="M0 -9L7.8 -4.5L7.8 4.5L0 9L-7.8 4.5L-7.8 -4.5Z" stroke="#7a50ad" fill="none" stroke-width="1"></path></g><g transform="translate(378 796)"><path d="M0 -3L2.6 -1.5L2.6 1.5L0 3L-2.6 1.5L-2.6 -1.5Z" stroke="#7a50ad" fill="none" stroke-width="1"></path></g><g transform="translate(73 506)"><path d="M0 -1L0.9 -0.5L0.9 0.5L0 1L-0.9 0.5L-0.9 -0.5Z" stroke="#7a50ad" fill="none" stroke-width="1"></path></g><g transform="translate(206 30)"><path d="M0 -1L0.9 -0.5L0.9 0.5L0 1L-0.9 0.5L-0.9 -0.5Z" stroke="#7a50ad" fill="none" stroke-width="1"></path></g><g transform="translate(434 661)"><path d="M0 -9L7.8 -4.5L7.8 4.5L0 9L-7.8 4.5L-7.8 -4.5Z" stroke="#7a50ad" fill="none" stroke-width="1"></path></g><g transform="translate(179 832)"><path d="M0 -10L8.7 -5L8.7 5L0 10L-8.7 5L-8.7 -5Z" stroke="#7a50ad" fill="none" stroke-width="1"></path></g><g transform="translate(172 763)"><path d="M0 -1L0.9 -0.5L0.9 0.5L0 1L-0.9 0.5L-0.9 -0.5Z" stroke="#7a50ad" fill="none" stroke-width="1"></path></g><g transform="translate(160 233)"><path d="M0 -4L3.5 -2L3.5 2L0 4L-3.5 2L-3.5 -2Z" stroke="#7a50ad" fill="none" stroke-width="1"></path></g><g transform="translate(88 845)"><path d="M0 -2L1.7 -1L1.7 1L0 2L-1.7 1L-1.7 -1Z" stroke="#7a50ad" fill="none" stroke-width="1"></path></g><g transform="translate(157 812)"><path d="M0 -5L4.3 -2.5L4.3 2.5L0 5L-4.3 2.5L-4.3 -2.5Z" stroke="#7a50ad" fill="none" stroke-width="1"></path></g><g transform="translate(508 124)"><path d="M0 -5L4.3 -2.5L4.3 2.5L0 5L-4.3 2.5L-4.3 -2.5Z" stroke="#7a50ad" fill="none" stroke-width="1"></path></g><g transform="translate(456 942)"><path d="M0 -4L3.5 -2L3.5 2L0 4L-3.5 2L-3.5 -2Z" stroke="#7a50ad" fill="none" stroke-width="1"></path></g><g transform="translate(458 163)"><path d="M0 -2L1.7 -1L1.7 1L0 2L-1.7 1L-1.7 -1Z" stroke="#7a50ad" fill="none" stroke-width="1"></path></g><g transform="translate(277 16)"><path d="M0 -10L8.7 -5L8.7 5L0 10L-8.7 5L-8.7 -5Z" stroke="#7a50ad" fill="none" stroke-width="1"></path></g><g transform="translate(89 245)"><path d="M0 -8L6.9 -4L6.9 4L0 8L-6.9 4L-6.9 -4Z" stroke="#7a50ad" fill="none" stroke-width="1"></path></g><g transform="translate(434 422)"><path d="M0 -6L5.2 -3L5.2 3L0 6L-5.2 3L-5.2 -3Z" stroke="#7a50ad" fill="none" stroke-width="1"></path></g><g transform="translate(134 420)"><path d="M0 -11L9.5 -5.5L9.5 5.5L0 11L-9.5 5.5L-9.5 -5.5Z" stroke="#7a50ad" fill="none" stroke-width="1"></path></g><g transform="translate(485 293)"><path d="M0 -8L6.9 -4L6.9 4L0 8L-6.9 4L-6.9 -4Z" stroke="#7a50ad" fill="none" stroke-width="1"></path></g><g transform="translate(247 169)"><path d="M0 -3L2.6 -1.5L2.6 1.5L0 3L-2.6 1.5L-2.6 -1.5Z" stroke="#7a50ad" fill="none" stroke-width="1"></path></g><g transform="translate(92 555)"><path d="M0 -9L7.8 -4.5L7.8 4.5L0 9L-7.8 4.5L-7.8 -4.5Z" stroke="#7a50ad" fill="none" stroke-width="1"></path></g><g transform="translate(267 101)"><path d="M0 -7L6.1 -3.5L6.1 3.5L0 7L-6.1 3.5L-6.1 -3.5Z" stroke="#7a50ad" fill="none" stroke-width="1"></path></g><g transform="translate(147 177)"><path d="M0 -10L8.7 -5L8.7 5L0 10L-8.7 5L-8.7 -5Z" stroke="#7a50ad" fill="none" stroke-width="1"></path></g><g transform="translate(53 614)"><path d="M0 -8L6.9 -4L6.9 4L0 8L-6.9 4L-6.9 -4Z" stroke="#7a50ad" fill="none" stroke-width="1"></path></g><g transform="translate(161 392)"><path d="M0 -6L5.2 -3L5.2 3L0 6L-5.2 3L-5.2 -3Z" stroke="#7a50ad" fill="none" stroke-width="1"></path></g><g transform="translate(155 277)"><path d="M0 -11L9.5 -5.5L9.5 5.5L0 11L-9.5 5.5L-9.5 -5.5Z" stroke="#7a50ad" fill="none" stroke-width="1"></path></g><g transform="translate(392 826)"><path d="M0 -3L2.6 -1.5L2.6 1.5L0 3L-2.6 1.5L-2.6 -1.5Z" stroke="#7a50ad" fill="none" stroke-width="1"></path></g><g transform="translate(465 858)"><path d="M0 -1L0.9 -0.5L0.9 0.5L0 1L-0.9 0.5L-0.9 -0.5Z" stroke="#7a50ad" fill="none" stroke-width="1"></path></g><g transform="translate(352 341)"><path d="M0 -3L2.6 -1.5L2.6 1.5L0 3L-2.6 1.5L-2.6 -1.5Z" stroke="#7a50ad" fill="none" stroke-width="1"></path></g><g transform="translate(203 772)"><path d="M0 -2L1.7 -1L1.7 1L0 2L-1.7 1L-1.7 -1Z" stroke="#7a50ad" fill="none" stroke-width="1"></path></g><g transform="translate(252 930)"><path d="M0 -2L1.7 -1L1.7 1L0 2L-1.7 1L-1.7 -1Z" stroke="#7a50ad" fill="none" stroke-width="1"></path></g><g transform="translate(281 465)"><path d="M0 -10L8.7 -5L8.7 5L0 10L-8.7 5L-8.7 -5Z" stroke="#7a50ad" fill="none" stroke-width="1"></path></g><g transform="translate(420 725)"><path d="M0 -8L6.9 -4L6.9 4L0 8L-6.9 4L-6.9 -4Z" stroke="#7a50ad" fill="none" stroke-width="1"></path></g><g transform="translate(181 518)"><path d="M0 -10L8.7 -5L8.7 5L0 10L-8.7 5L-8.7 -5Z" stroke="#7a50ad" fill="none" stroke-width="1"></path></g><g transform="translate(504 186)"><path d="M0 -1L0.9 -0.5L0.9 0.5L0 1L-0.9 0.5L-0.9 -0.5Z" stroke="#7a50ad" fill="none" stroke-width="1"></path></g><g transform="translate(68 146)"><path d="M0 -5L4.3 -2.5L4.3 2.5L0 5L-4.3 2.5L-4.3 -2.5Z" stroke="#7a50ad" fill="none" stroke-width="1"></path></g><g transform="translate(55 664)"><path d="M0 -3L2.6 -1.5L2.6 1.5L0 3L-2.6 1.5L-2.6 -1.5Z" stroke="#7a50ad" fill="none" stroke-width="1"></path></g><g transform="translate(38 885)"><path d="M0 -6L5.2 -3L5.2 3L0 6L-5.2 3L-5.2 -3Z" stroke="#7a50ad" fill="none" stroke-width="1"></path></g><g transform="translate(364 124)"><path d="M0 -11L9.5 -5.5L9.5 5.5L0 11L-9.5 5.5L-9.5 -5.5Z" stroke="#7a50ad" fill="none" stroke-width="1"></path></g><g transform="translate(353 416)"><path d="M0 -1L0.9 -0.5L0.9 0.5L0 1L-0.9 0.5L-0.9 -0.5Z" stroke="#7a50ad" fill="none" stroke-width="1"></path></g><g transform="translate(211 833)"><path d="M0 -11L9.5 -5.5L9.5 5.5L0 11L-9.5 5.5L-9.5 -5.5Z" stroke="#7a50ad" fill="none" stroke-width="1"></path></g><g transform="translate(383 433)"><path d="M0 -9L7.8 -4.5L7.8 4.5L0 9L-7.8 4.5L-7.8 -4.5Z" stroke="#7a50ad" fill="none" stroke-width="1"></path></g><g transform="translate(79 439)"><path d="M0 -3L2.6 -1.5L2.6 1.5L0 3L-2.6 1.5L-2.6 -1.5Z" stroke="#7a50ad" fill="none" stroke-width="1"></path></g><g transform="translate(410 413)"><path d="M0 -8L6.9 -4L6.9 4L0 8L-6.9 4L-6.9 -4Z" stroke="#7a50ad" fill="none" stroke-width="1"></path></g><g transform="translate(406 687)"><path d="M0 -11L9.5 -5.5L9.5 5.5L0 11L-9.5 5.5L-9.5 -5.5Z" stroke="#7a50ad" fill="none" stroke-width="1"></path></g><g transform="translate(196 173)"><path d="M0 -9L7.8 -4.5L7.8 4.5L0 9L-7.8 4.5L-7.8 -4.5Z" stroke="#7a50ad" fill="none" stroke-width="1"></path></g><g transform="translate(488 333)"><path d="M0 -2L1.7 -1L1.7 1L0 2L-1.7 1L-1.7 -1Z" stroke="#7a50ad" fill="none" stroke-width="1"></path></g><g transform="translate(390 69)"><path d="M0 -3L2.6 -1.5L2.6 1.5L0 3L-2.6 1.5L-2.6 -1.5Z" stroke="#7a50ad" fill="none" stroke-width="1"></path></g><g transform="translate(34 56)"><path d="M0 -11L9.5 -5.5L9.5 5.5L0 11L-9.5 5.5L-9.5 -5.5Z" stroke="#7a50ad" fill="none" stroke-width="1"></path></g><g transform="translate(478 491)"><path d="M0 -8L6.9 -4L6.9 4L0 8L-6.9 4L-6.9 -4Z" stroke="#7a50ad" fill="none" stroke-width="1"></path></g><g transform="translate(18 362)"><path d="M0 -8L6.9 -4L6.9 4L0 8L-6.9 4L-6.9 -4Z" stroke="#7a50ad" fill="none" stroke-width="1"></path></g><g transform="translate(476 186)"><path d="M0 -5L4.3 -2.5L4.3 2.5L0 5L-4.3 2.5L-4.3 -2.5Z" stroke="#7a50ad" fill="none" stroke-width="1"></path></g><g transform="translate(25 799)"><path d="M0 -1L0.9 -0.5L0.9 0.5L0 1L-0.9 0.5L-0.9 -0.5Z" stroke="#7a50ad" fill="none" stroke-width="1"></path></g><g transform="translate(241 456)"><path d="M0 -9L7.8 -4.5L7.8 4.5L0 9L-7.8 4.5L-7.8 -4.5Z" stroke="#7a50ad" fill="none" stroke-width="1"></path></g><g transform="translate(108 264)"><path d="M0 -10L8.7 -5L8.7 5L0 10L-8.7 5L-8.7 -5Z" stroke="#7a50ad" fill="none" stroke-width="1"></path></g><g transform="translate(269 689)"><path d="M0 -5L4.3 -2.5L4.3 2.5L0 5L-4.3 2.5L-4.3 -2.5Z" stroke="#7a50ad" fill="none" stroke-width="1"></path></g><g transform="translate(247 628)"><path d="M0 -1L0.9 -0.5L0.9 0.5L0 1L-0.9 0.5L-0.9 -0.5Z" stroke="#7a50ad" fill="none" stroke-width="1"></path></g><g transform="translate(268 415)"><path d="M0 -3L2.6 -1.5L2.6 1.5L0 3L-2.6 1.5L-2.6 -1.5Z" stroke="#7a50ad" fill="none" stroke-width="1"></path></g><g transform="translate(192 667)"><path d="M0 -2L1.7 -1L1.7 1L0 2L-1.7 1L-1.7 -1Z" stroke="#7a50ad" fill="none" stroke-width="1"></path></g><g transform="translate(235 596)"><path d="M0 -6L5.2 -3L5.2 3L0 6L-5.2 3L-5.2 -3Z" stroke="#7a50ad" fill="none" stroke-width="1"></path></g><g transform="translate(207 721)"><path d="M0 -5L4.3 -2.5L4.3 2.5L0 5L-4.3 2.5L-4.3 -2.5Z" stroke="#7a50ad" fill="none" stroke-width="1"></path></g><g transform="translate(520 227)"><path d="M0 -3L2.6 -1.5L2.6 1.5L0 3L-2.6 1.5L-2.6 -1.5Z" stroke="#7a50ad" fill="none" stroke-width="1"></path></g><g transform="translate(372 735)"><path d="M0 -4L3.5 -2L3.5 2L0 4L-3.5 2L-3.5 -2Z" stroke="#7a50ad" fill="none" stroke-width="1"></path></g><g transform="translate(157 610)"><path d="M0 -5L4.3 -2.5L4.3 2.5L0 5L-4.3 2.5L-4.3 -2.5Z" stroke="#7a50ad" fill="none" stroke-width="1"></path></g><g transform="translate(219 189)"><path d="M0 -6L5.2 -3L5.2 3L0 6L-5.2 3L-5.2 -3Z" stroke="#7a50ad" fill="none" stroke-width="1"></path></g><g transform="translate(46 473)"><path d="M0 -2L1.7 -1L1.7 1L0 2L-1.7 1L-1.7 -1Z" stroke="#7a50ad" fill="none" stroke-width="1"></path></g><g transform="translate(79 758)"><path d="M0 -10L8.7 -5L8.7 5L0 10L-8.7 5L-8.7 -5Z" stroke="#7a50ad" fill="none" stroke-width="1"></path></g><g transform="translate(320 585)"><path d="M0 -5L4.3 -2.5L4.3 2.5L0 5L-4.3 2.5L-4.3 -2.5Z" stroke="#7a50ad" fill="none" stroke-width="1"></path></g></g></svg>