<svg id="visual" viewBox="0 0 960 540" width="960" height="540" xmlns="http://www.w3.org/2000/svg" xmlns:xlink="http://www.w3.org/1999/xlink" version="1.1"><g><g transform="translate(273 493)"><path d="M0 -12.8L11.1 -6.4L11.1 6.4L0 12.8L-11.1 6.4L-11.1 -6.4Z" stroke="#7a50ad" fill="none" stroke-width="1"></path></g><g transform="translate(531 72)"><path d="M0 -10L8.7 -5L8.7 5L0 10L-8.7 5L-8.7 -5Z" stroke="#7a50ad" fill="none" stroke-width="1"></path></g><g transform="translate(51 94)"><path d="M0 -2L1.7 -1L1.7 1L0 2L-1.7 1L-1.7 -1Z" stroke="#7a50ad" fill="none" stroke-width="1"></path></g><g transform="translate(603 409)"><path d="M0 -6L5.2 -3L5.2 3L0 6L-5.2 3L-5.2 -3Z" stroke="#7a50ad" fill="none" stroke-width="1"></path></g><g transform="translate(134 277)"><path d="M0 -1L0.9 -0.5L0.9 0.5L0 1L-0.9 0.5L-0.9 -0.5Z" stroke="#7a50ad" fill="none" stroke-width="1"></path></g><g transform="translate(901 243)"><path d="M0 -9L7.8 -4.5L7.8 4.5L0 9L-7.8 4.5L-7.8 -4.5Z" stroke="#7a50ad" fill="none" stroke-width="1"></path></g><g transform="translate(576 317)"><path d="M0 -10L8.7 -5L8.7 5L0 10L-8.7 5L-8.7 -5Z" stroke="#7a50ad" fill="none" stroke-width="1"></path></g><g transform="translate(169 359)"><path d="M0 -1L0.9 -0.5L0.9 0.5L0 1L-0.9 0.5L-0.9 -0.5Z" stroke="#7a50ad" fill="none" stroke-width="1"></path></g><g transform="translate(758 402)"><path d="M0 -11L9.5 -5.5L9.5 5.5L0 11L-9.5 5.5L-9.5 -5.5Z" stroke="#7a50ad" fill="none" stroke-width="1"></path></g><g transform="translate(392 426)"><path d="M0 -3L2.6 -1.5L2.6 1.5L0 3L-2.6 1.5L-2.6 -1.5Z" stroke="#7a50ad" fill="none" stroke-width="1"></path></g><g transform="translate(417 493)"><path d="M0 -6L5.2 -3L5.2 3L0 6L-5.2 3L-5.2 -3Z" stroke="#7a50ad" fill="none" stroke-width="1"></path></g><g transform="translate(211 136)"><path d="M0 -6L5.2 -3L5.2 3L0 6L-5.2 3L-5.2 -3Z" stroke="#7a50ad" fill="none" stroke-width="1"></path></g><g transform="translate(924 331)"><path d="M0 -5L4.3 -2.5L4.3 2.5L0 5L-4.3 2.5L-4.3 -2.5Z" stroke="#7a50ad" fill="none" stroke-width="1"></path></g><g transform="translate(382 160)"><path d="M0 -10L8.7 -5L8.7 5L0 10L-8.7 5L-8.7 -5Z" stroke="#7a50ad" fill="none" stroke-width="1"></path></g><g transform="translate(64 298)"><path d="M0 -2L1.7 -1L1.7 1L0 2L-1.7 1L-1.7 -1Z" stroke="#7a50ad" fill="none" stroke-width="1"></path></g><g transform="translate(330 68)"><path d="M0 -6L5.2 -3L5.2 3L0 6L-5.2 3L-5.2 -3Z" stroke="#7a50ad" fill="none" stroke-width="1"></path></g><g transform="translate(830 516)"><path d="M0 -8L6.9 -4L6.9 4L0 8L-6.9 4L-6.9 -4Z" stroke="#7a50ad" fill="none" stroke-width="1"></path></g><g transform="translate(299 261)"><path d="M0 -4L3.5 -2L3.5 2L0 4L-3.5 2L-3.5 -2Z" stroke="#7a50ad" fill="none" stroke-width="1"></path></g><g transform="translate(669 251)"><path d="M0 -1L0.9 -0.5L0.9 0.5L0 1L-0.9 0.5L-0.9 -0.5Z" stroke="#7a50ad" fill="none" stroke-width="1"></path></g><g transform="translate(625 62)"><path d="M0 -8L6.9 -4L6.9 4L0 8L-6.9 4L-6.9 -4Z" stroke="#7a50ad" fill="none" stroke-width="1"></path></g><g transform="translate(504 303)"><path d="M0 -7L6.1 -3.5L6.1 3.5L0 7L-6.1 3.5L-6.1 -3.5Z" stroke="#7a50ad" fill="none" stroke-width="1"></path></g><g transform="translate(228 504)"><path d="M0 -11L9.5 -5.5L9.5 5.5L0 11L-9.5 5.5L-9.5 -5.5Z" stroke="#7a50ad" fill="none" stroke-width="1"></path></g><g transform="translate(94 397)"><path d="M0 -10L8.7 -5L8.7 5L0 10L-8.7 5L-8.7 -5Z" stroke="#7a50ad" fill="none" stroke-width="1"></path></g><g transform="translate(813 420)"><path d="M0 -7L6.1 -3.5L6.1 3.5L0 7L-6.1 3.5L-6.1 -3.5Z" stroke="#7a50ad" fill="none" stroke-width="1"></path></g><g transform="translate(424 520)"><path d="M0 -11L9.5 -5.5L9.5 5.5L0 11L-9.5 5.5L-9.5 -5.5Z" stroke="#7a50ad" fill="none" stroke-width="1"></path></g><g transform="translate(663 367)"><path d="M0 -6L5.2 -3L5.2 3L0 6L-5.2 3L-5.2 -3Z" stroke="#7a50ad" fill="none" stroke-width="1"></path></g><g transform="translate(345 24)"><path d="M0 -9L7.8 -4.5L7.8 4.5L0 9L-7.8 4.5L-7.8 -4.5Z" stroke="#7a50ad" fill="none" stroke-width="1"></path></g><g transform="translate(436 289)"><path d="M0 -8L6.9 -4L6.9 4L0 8L-6.9 4L-6.9 -4Z" stroke="#7a50ad" fill="none" stroke-width="1"></path></g><g transform="translate(82 463)"><path d="M0 -4L3.5 -2L3.5 2L0 4L-3.5 2L-3.5 -2Z" stroke="#7a50ad" fill="none" stroke-width="1"></path></g><g transform="translate(431 79)"><path d="M0 -6L5.2 -3L5.2 3L0 6L-5.2 3L-5.2 -3Z" stroke="#7a50ad" fill="none" stroke-width="1"></path></g><g transform="translate(892 388)"><path d="M0 -10L8.7 -5L8.7 5L0 10L-8.7 5L-8.7 -5Z" stroke="#7a50ad" fill="none" stroke-width="1"></path></g><g transform="translate(138 498)"><path d="M0 -3L2.6 -1.5L2.6 1.5L0 3L-2.6 1.5L-2.6 -1.5Z" stroke="#7a50ad" fill="none" stroke-width="1"></path></g><g transform="translate(358 368)"><path d="M0 -7L6.1 -3.5L6.1 3.5L0 7L-6.1 3.5L-6.1 -3.5Z" stroke="#7a50ad" fill="none" stroke-width="1"></path></g><g transform="translate(473 174)"><path d="M0 -5L4.3 -2.5L4.3 2.5L0 5L-4.3 2.5L-4.3 -2.5Z" stroke="#7a50ad" fill="none" stroke-width="1"></path></g><g transform="translate(669 408)"><path d="M0 -4L3.5 -2L3.5 2L0 4L-3.5 2L-3.5 -2Z" stroke="#7a50ad" fill="none" stroke-width="1"></path></g><g transform="translate(135 44)"><path d="M0 -2L1.7 -1L1.7 1L0 2L-1.7 1L-1.7 -1Z" stroke="#7a50ad" fill="none" stroke-width="1"></path></g><g transform="translate(908 128)"><path d="M0 -2L1.7 -1L1.7 1L0 2L-1.7 1L-1.7 -1Z" stroke="#7a50ad" fill="none" stroke-width="1"></path></g><g transform="translate(614 185)"><path d="M0 -9L7.8 -4.5L7.8 4.5L0 9L-7.8 4.5L-7.8 -4.5Z" stroke="#7a50ad" fill="none" stroke-width="1"></path></g><g transform="translate(14 388)"><path d="M0 -11L9.5 -5.5L9.5 5.5L0 11L-9.5 5.5L-9.5 -5.5Z" stroke="#7a50ad" fill="none" stroke-width="1"></path></g><g transform="translate(390 378)"><path d="M0 -4L3.5 -2L3.5 2L0 4L-3.5 2L-3.5 -2Z" stroke="#7a50ad" fill="none" stroke-width="1"></path></g><g transform="translate(101 65)"><path d="M0 -10L8.7 -5L8.7 5L0 10L-8.7 5L-8.7 -5Z" stroke="#7a50ad" fill="none" stroke-width="1"></path></g><g transform="translate(855 331)"><path d="M0 -9L7.8 -4.5L7.8 4.5L0 9L-7.8 4.5L-7.8 -4.5Z" stroke="#7a50ad" fill="none" stroke-width="1"></path></g><g transform="translate(736 90)"><path d="M0 -2L1.7 -1L1.7 1L0 2L-1.7 1L-1.7 -1Z" stroke="#7a50ad" fill="none" stroke-width="1"></path></g><g transform="translate(420 153)"><path d="M0 -6L5.2 -3L5.2 3L0 6L-5.2 3L-5.2 -3Z" stroke="#7a50ad" fill="none" stroke-width="1"></path></g><g transform="translate(283 74)"><path d="M0 -5L4.3 -2.5L4.3 2.5L0 5L-4.3 2.5L-4.3 -2.5Z" stroke="#7a50ad" fill="none" stroke-width="1"></path></g><g transform="translate(340 474)"><path d="M0 -3L2.6 -1.5L2.6 1.5L0 3L-2.6 1.5L-2.6 -1.5Z" stroke="#7a50ad" fill="none" stroke-width="1"></path></g><g transform="translate(724 147)"><path d="M0 -6L5.2 -3L5.2 3L0 6L-5.2 3L-5.2 -3Z" stroke="#7a50ad" fill="none" stroke-width="1"></path></g><g transform="translate(149 17)"><path d="M0 -7L6.1 -3.5L6.1 3.5L0 7L-6.1 3.5L-6.1 -3.5Z" stroke="#7a50ad" fill="none" stroke-width="1"></path></g><g transform="translate(881 13)"><path d="M0 -9L7.8 -4.5L7.8 4.5L0 9L-7.8 4.5L-7.8 -4.5Z" stroke="#7a50ad" fill="none" stroke-width="1"></path></g><g transform="translate(340 342)"><path d="M0 -2L1.7 -1L1.7 1L0 2L-1.7 1L-1.7 -1Z" stroke="#7a50ad" fill="none" stroke-width="1"></path></g><g transform="translate(310 150)"><path d="M0 -7L6.1 -3.5L6.1 3.5L0 7L-6.1 3.5L-6.1 -3.5Z" stroke="#7a50ad" fill="none" stroke-width="1"></path></g><g transform="translate(862 104)"><path d="M0 -1L0.9 -0.5L0.9 0.5L0 1L-0.9 0.5L-0.9 -0.5Z" stroke="#7a50ad" fill="none" stroke-width="1"></path></g><g transform="translate(944 408)"><path d="M0 -8L6.9 -4L6.9 4L0 8L-6.9 4L-6.9 -4Z" stroke="#7a50ad" fill="none" stroke-width="1"></path></g><g transform="translate(676 332)"><path d="M0 -3L2.6 -1.5L2.6 1.5L0 3L-2.6 1.5L-2.6 -1.5Z" stroke="#7a50ad" fill="none" stroke-width="1"></path></g><g transform="translate(666 95)"><path d="M0 -1L0.9 -0.5L0.9 0.5L0 1L-0.9 0.5L-0.9 -0.5Z" stroke="#7a50ad" fill="none" stroke-width="1"></path></g><g transform="translate(455 371)"><path d="M0 -5L4.3 -2.5L4.3 2.5L0 5L-4.3 2.5L-4.3 -2.5Z" stroke="#7a50ad" fill="none" stroke-width="1"></path></g><g transform="translate(365 287)"><path d="M0 -5L4.3 -2.5L4.3 2.5L0 5L-4.3 2.5L-4.3 -2.5Z" stroke="#7a50ad" fill="none" stroke-width="1"></path></g><g transform="translate(584 364)"><path d="M0 -6L5.2 -3L5.2 3L0 6L-5.2 3L-5.2 -3Z" stroke="#7a50ad" fill="none" stroke-width="1"></path></g><g transform="translate(266 180)"><path d="M0 -7L6.1 -3.5L6.1 3.5L0 7L-6.1 3.5L-6.1 -3.5Z" stroke="#7a50ad" fill="none" stroke-width="1"></path></g><g transform="translate(64 348)"><path d="M0 -3L2.6 -1.5L2.6 1.5L0 3L-2.6 1.5L-2.6 -1.5Z" stroke="#7a50ad" fill="none" stroke-width="1"></path></g><g transform="translate(167 248)"><path d="M0 -3L2.6 -1.5L2.6 1.5L0 3L-2.6 1.5L-2.6 -1.5Z" stroke="#7a50ad" fill="none" stroke-width="1"></path></g><g transform="translate(514 116)"><path d="M0 -2L1.7 -1L1.7 1L0 2L-1.7 1L-1.7 -1Z" stroke="#7a50ad" fill="none" stroke-width="1"></path></g><g transform="translate(857 290)"><path d="M0 -8L6.9 -4L6.9 4L0 8L-6.9 4L-6.9 -4Z" stroke="#7a50ad" fill="none" stroke-width="1"></path></g><g transform="translate(402 196)"><path d="M0 -6L5.2 -3L5.2 3L0 6L-5.2 3L-5.2 -3Z" stroke="#7a50ad" fill="none" stroke-width="1"></path></g><g transform="translate(807 195)"><path d="M0 -5L4.3 -2.5L4.3 2.5L0 5L-4.3 2.5L-4.3 -2.5Z" stroke="#7a50ad" fill="none" stroke-width="1"></path></g><g transform="translate(350 130)"><path d="M0 -6L5.2 -3L5.2 3L0 6L-5.2 3L-5.2 -3Z" stroke="#7a50ad" fill="none" stroke-width="1"></path></g><g transform="translate(528 326)"><path d="M0 -7L6.1 -3.5L6.1 3.5L0 7L-6.1 3.5L-6.1 -3.5Z" stroke="#7a50ad" fill="none" stroke-width="1"></path></g><g transform="translate(49 49)"><path d="M0 -9L7.8 -4.5L7.8 4.5L0 9L-7.8 4.5L-7.8 -4.5Z" stroke="#7a50ad" fill="none" stroke-width="1"></path></g><g transform="translate(117 316)"><path d="M0 -10L8.7 -5L8.7 5L0 10L-8.7 5L-8.7 -5Z" stroke="#7a50ad" fill="none" stroke-width="1"></path></g><g transform="translate(295 316)"><path d="M0 -2L1.7 -1L1.7 1L0 2L-1.7 1L-1.7 -1Z" stroke="#7a50ad" fill="none" stroke-width="1"></path></g><g transform="translate(222 478)"><path d="M0 -7L6.1 -3.5L6.1 3.5L0 7L-6.1 3.5L-6.1 -3.5Z" stroke="#7a50ad" fill="none" stroke-width="1"></path></g><g transform="translate(263 414)"><path d="M0 -11L9.5 -5.5L9.5 5.5L0 11L-9.5 5.5L-9.5 -5.5Z" stroke="#7a50ad" fill="none" stroke-width="1"></path></g><g transform="translate(257 59)"><path d="M0 -1L0.9 -0.5L0.9 0.5L0 1L-0.9 0.5L-0.9 -0.5Z" stroke="#7a50ad" fill="none" stroke-width="1"></path></g><g transform="translate(454 23)"><path d="M0 -10L8.7 -5L8.7 5L0 10L-8.7 5L-8.7 -5Z" stroke="#7a50ad" fill="none" stroke-width="1"></path></g><g transform="translate(924 425)"><path d="M0 -3L2.6 -1.5L2.6 1.5L0 3L-2.6 1.5L-2.6 -1.5Z" stroke="#7a50ad" fill="none" stroke-width="1"></path></g><g transform="translate(120 444)"><path d="M0 -1L0.9 -0.5L0.9 0.5L0 1L-0.9 0.5L-0.9 -0.5Z" stroke="#7a50ad" fill="none" stroke-width="1"></path></g><g transform="translate(853 167)"><path d="M0 -10L8.7 -5L8.7 5L0 10L-8.7 5L-8.7 -5Z" stroke="#7a50ad" fill="none" stroke-width="1"></path></g><g transform="translate(344 272)"><path d="M0 -9L7.8 -4.5L7.8 4.5L0 9L-7.8 4.5L-7.8 -4.5Z" stroke="#7a50ad" fill="none" stroke-width="1"></path></g><g transform="translate(666 34)"><path d="M0 -7L6.1 -3.5L6.1 3.5L0 7L-6.1 3.5L-6.1 -3.5Z" stroke="#7a50ad" fill="none" stroke-width="1"></path></g><g transform="translate(472 347)"><path d="M0 -7L6.1 -3.5L6.1 3.5L0 7L-6.1 3.5L-6.1 -3.5Z" stroke="#7a50ad" fill="none" stroke-width="1"></path></g><g transform="translate(551 507)"><path d="M0 -6L5.2 -3L5.2 3L0 6L-5.2 3L-5.2 -3Z" stroke="#7a50ad" fill="none" stroke-width="1"></path></g><g transform="translate(264 246)"><path d="M0 -7L6.1 -3.5L6.1 3.5L0 7L-6.1 3.5L-6.1 -3.5Z" stroke="#7a50ad" fill="none" stroke-width="1"></path></g><g transform="translate(33 166)"><path d="M0 -11L9.5 -5.5L9.5 5.5L0 11L-9.5 5.5L-9.5 -5.5Z" stroke="#7a50ad" fill="none" stroke-width="1"></path></g><g transform="translate(440 137)"><path d="M0 -6L5.2 -3L5.2 3L0 6L-5.2 3L-5.2 -3Z" stroke="#7a50ad" fill="none" stroke-width="1"></path></g><g transform="translate(799 59)"><path d="M0 -3L2.6 -1.5L2.6 1.5L0 3L-2.6 1.5L-2.6 -1.5Z" stroke="#7a50ad" fill="none" stroke-width="1"></path></g><g transform="translate(192 441)"><path d="M0 -3L2.6 -1.5L2.6 1.5L0 3L-2.6 1.5L-2.6 -1.5Z" stroke="#7a50ad" fill="none" stroke-width="1"></path></g><g transform="translate(812 288)"><path d="M0 -1L0.9 -0.5L0.9 0.5L0 1L-0.9 0.5L-0.9 -0.5Z" stroke="#7a50ad" fill="none" stroke-width="1"></path></g><g transform="translate(238 173)"><path d="M0 -1L0.9 -0.5L0.9 0.5L0 1L-0.9 0.5L-0.9 -0.5Z" stroke="#7a50ad" fill="none" stroke-width="1"></path></g><g transform="translate(694 149)"><path d="M0 -11L9.5 -5.5L9.5 5.5L0 11L-9.5 5.5L-9.5 -5.5Z" stroke="#7a50ad" fill="none" stroke-width="1"></path></g><g transform="translate(195 467)"><path d="M0 -9L7.8 -4.5L7.8 4.5L0 9L-7.8 4.5L-7.8 -4.5Z" stroke="#7a50ad" fill="none" stroke-width="1"></path></g><g transform="translate(553 182)"><path d="M0 -10L8.7 -5L8.7 5L0 10L-8.7 5L-8.7 -5Z" stroke="#7a50ad" fill="none" stroke-width="1"></path></g><g transform="translate(85 137)"><path d="M0 -2L1.7 -1L1.7 1L0 2L-1.7 1L-1.7 -1Z" stroke="#7a50ad" fill="none" stroke-width="1"></path></g><g transform="translate(54 23)"><path d="M0 -4L3.5 -2L3.5 2L0 4L-3.5 2L-3.5 -2Z" stroke="#7a50ad" fill="none" stroke-width="1"></path></g><g transform="translate(269 463)"><path d="M0 -10L8.7 -5L8.7 5L0 10L-8.7 5L-8.7 -5Z" stroke="#7a50ad" fill="none" stroke-width="1"></path></g><g transform="translate(160 146)"><path d="M0 -5L4.3 -2.5L4.3 2.5L0 5L-4.3 2.5L-4.3 -2.5Z" stroke="#7a50ad" fill="none" stroke-width="1"></path></g><g transform="translate(608 88)"><path d="M0 -4L3.5 -2L3.5 2L0 4L-3.5 2L-3.5 -2Z" stroke="#7a50ad" fill="none" stroke-width="1"></path></g><g transform="translate(221 415)"><path d="M0 -8L6.9 -4L6.9 4L0 8L-6.9 4L-6.9 -4Z" stroke="#7a50ad" fill="none" stroke-width="1"></path></g><g transform="translate(44 210)"><path d="M0 -2L1.7 -1L1.7 1L0 2L-1.7 1L-1.7 -1Z" stroke="#7a50ad" fill="none" stroke-width="1"></path></g><g transform="translate(96 187)"><path d="M0 -3L2.6 -1.5L2.6 1.5L0 3L-2.6 1.5L-2.6 -1.5Z" stroke="#7a50ad" fill="none" stroke-width="1"></path></g><g transform="translate(411 234)"><path d="M0 -3L2.6 -1.5L2.6 1.5L0 3L-2.6 1.5L-2.6 -1.5Z" stroke="#7a50ad" fill="none" stroke-width="1"></path></g><g transform="translate(792 172)"><path d="M0 -1L0.9 -0.5L0.9 0.5L0 1L-0.9 0.5L-0.9 -0.5Z" stroke="#7a50ad" fill="none" stroke-width="1"></path></g><g transform="translate(104 34)"><path d="M0 -7L6.1 -3.5L6.1 3.5L0 7L-6.1 3.5L-6.1 -3.5Z" stroke="#7a50ad" fill="none" stroke-width="1"></path></g><g transform="translate(314 406)"><path d="M0 -1L0.9 -0.5L0.9 0.5L0 1L-0.9 0.5L-0.9 -0.5Z" stroke="#7a50ad" fill="none" stroke-width="1"></path></g><g transform="translate(617 320)"><path d="M0 -9L7.8 -4.5L7.8 4.5L0 9L-7.8 4.5L-7.8 -4.5Z" stroke="#7a50ad" fill="none" stroke-width="1"></path></g><g transform="translate(37 371)"><path d="M0 -5L4.3 -2.5L4.3 2.5L0 5L-4.3 2.5L-4.3 -2.5Z" stroke="#7a50ad" fill="none" stroke-width="1"></path></g><g transform="translate(910 353)"><path d="M0 -11L9.5 -5.5L9.5 5.5L0 11L-9.5 5.5L-9.5 -5.5Z" stroke="#7a50ad" fill="none" stroke-width="1"></path></g><g transform="translate(824 390)"><path d="M0 -6L5.2 -3L5.2 3L0 6L-5.2 3L-5.2 -3Z" stroke="#7a50ad" fill="none" stroke-width="1"></path></g><g transform="translate(206 297)"><path d="M0 -3L2.6 -1.5L2.6 1.5L0 3L-2.6 1.5L-2.6 -1.5Z" stroke="#7a50ad" fill="none" stroke-width="1"></path></g><g transform="translate(203 368)"><path d="M0 -1L0.9 -0.5L0.9 0.5L0 1L-0.9 0.5L-0.9 -0.5Z" stroke="#7a50ad" fill="none" stroke-width="1"></path></g><g transform="translate(472 255)"><path d="M0 -7L6.1 -3.5L6.1 3.5L0 7L-6.1 3.5L-6.1 -3.5Z" stroke="#7a50ad" fill="none" stroke-width="1"></path></g><g transform="translate(293 183)"><path d="M0 -6L5.2 -3L5.2 3L0 6L-5.2 3L-5.2 -3Z" stroke="#7a50ad" fill="none" stroke-width="1"></path></g><g transform="translate(54 132)"><path d="M0 -11L9.5 -5.5L9.5 5.5L0 11L-9.5 5.5L-9.5 -5.5Z" stroke="#7a50ad" fill="none" stroke-width="1"></path></g><g transform="translate(147 447)"><path d="M0 -11L9.5 -5.5L9.5 5.5L0 11L-9.5 5.5L-9.5 -5.5Z" stroke="#7a50ad" fill="none" stroke-width="1"></path></g><g transform="translate(911 485)"><path d="M0 -8L6.9 -4L6.9 4L0 8L-6.9 4L-6.9 -4Z" stroke="#7a50ad" fill="none" stroke-width="1"></path></g><g transform="translate(34 300)"><path d="M0 -9L7.8 -4.5L7.8 4.5L0 9L-7.8 4.5L-7.8 -4.5Z" stroke="#7a50ad" fill="none" stroke-width="1"></path></g><g transform="translate(194 325)"><path d="M0 -6L5.2 -3L5.2 3L0 6L-5.2 3L-5.2 -3Z" stroke="#7a50ad" fill="none" stroke-width="1"></path></g><g transform="translate(730 63)"><path d="M0 -4L3.5 -2L3.5 2L0 4L-3.5 2L-3.5 -2Z" stroke="#7a50ad" fill="none" stroke-width="1"></path></g><g transform="translate(708 213)"><path d="M0 -4L3.5 -2L3.5 2L0 4L-3.5 2L-3.5 -2Z" stroke="#7a50ad" fill="none" stroke-width="1"></path></g><g transform="translate(109 506)"><path d="M0 -10L8.7 -5L8.7 5L0 10L-8.7 5L-8.7 -5Z" stroke="#7a50ad" fill="none" stroke-width="1"></path></g><g transform="translate(934 378)"><path d="M0 -8L6.9 -4L6.9 4L0 8L-6.9 4L-6.9 -4Z" stroke="#7a50ad" fill="none" stroke-width="1"></path></g><g transform="translate(427 13)"><path d="M0 -8L6.9 -4L6.9 4L0 8L-6.9 4L-6.9 -4Z" stroke="#7a50ad" fill="none" stroke-width="1"></path></g><g transform="translate(336 191)"><path d="M0 -4L3.5 -2L3.5 2L0 4L-3.5 2L-3.5 -2Z" stroke="#7a50ad" fill="none" stroke-width="1"></path></g><g transform="translate(371 65)"><path d="M0 -7L6.1 -3.5L6.1 3.5L0 7L-6.1 3.5L-6.1 -3.5Z" stroke="#7a50ad" fill="none" stroke-width="1"></path></g><g transform="translate(569 427)"><path d="M0 -1L0.9 -0.5L0.9 0.5L0 1L-0.9 0.5L-0.9 -0.5Z" stroke="#7a50ad" fill="none" stroke-width="1"></path></g><g transform="translate(447 320)"><path d="M0 -10L8.7 -5L8.7 5L0 10L-8.7 5L-8.7 -5Z" stroke="#7a50ad" fill="none" stroke-width="1"></path></g><g transform="translate(865 380)"><path d="M0 -1L0.9 -0.5L0.9 0.5L0 1L-0.9 0.5L-0.9 -0.5Z" stroke="#7a50ad" fill="none" stroke-width="1"></path></g><g transform="translate(787 381)"><path d="M0 -7L6.1 -3.5L6.1 3.5L0 7L-6.1 3.5L-6.1 -3.5Z" stroke="#7a50ad" fill="none" stroke-width="1"></path></g><g transform="translate(793 482)"><path d="M0 -5L4.3 -2.5L4.3 2.5L0 5L-4.3 2.5L-4.3 -2.5Z" stroke="#7a50ad" fill="none" stroke-width="1"></path></g><g transform="translate(691 481)"><path d="M0 -3L2.6 -1.5L2.6 1.5L0 3L-2.6 1.5L-2.6 -1.5Z" stroke="#7a50ad" fill="none" stroke-width="1"></path></g><g transform="translate(753 434)"><path d="M0 -3L2.6 -1.5L2.6 1.5L0 3L-2.6 1.5L-2.6 -1.5Z" stroke="#7a50ad" fill="none" stroke-width="1"></path></g><g transform="translate(488 64)"><path d="M0 -8L6.9 -4L6.9 4L0 8L-6.9 4L-6.9 -4Z" stroke="#7a50ad" fill="none" stroke-width="1"></path></g><g transform="translate(109 244)"><path d="M0 -3L2.6 -1.5L2.6 1.5L0 3L-2.6 1.5L-2.6 -1.5Z" stroke="#7a50ad" fill="none" stroke-width="1"></path></g><g transform="translate(250 351)"><path d="M0 -11L9.5 -5.5L9.5 5.5L0 11L-9.5 5.5L-9.5 -5.5Z" stroke="#7a50ad" fill="none" stroke-width="1"></path></g><g transform="translate(915 217)"><path d="M0 -2L1.7 -1L1.7 1L0 2L-1.7 1L-1.7 -1Z" stroke="#7a50ad" fill="none" stroke-width="1"></path></g><g transform="translate(882 342)"><path d="M0 -7L6.1 -3.5L6.1 3.5L0 7L-6.1 3.5L-6.1 -3.5Z" stroke="#7a50ad" fill="none" stroke-width="1"></path></g><g transform="translate(535 411)"><path d="M0 -1L0.9 -0.5L0.9 0.5L0 1L-0.9 0.5L-0.9 -0.5Z" stroke="#7a50ad" fill="none" stroke-width="1"></path></g><g transform="translate(810 122)"><path d="M0 -1L0.9 -0.5L0.9 0.5L0 1L-0.9 0.5L-0.9 -0.5Z" stroke="#7a50ad" fill="none" stroke-width="1"></path></g><g transform="translate(704 92)"><path d="M0 -2L1.7 -1L1.7 1L0 2L-1.7 1L-1.7 -1Z" stroke="#7a50ad" fill="none" stroke-width="1"></path></g><g transform="translate(380 107)"><path d="M0 -5L4.3 -2.5L4.3 2.5L0 5L-4.3 2.5L-4.3 -2.5Z" stroke="#7a50ad" fill="none" stroke-width="1"></path></g><g transform="translate(480 485)"><path d="M0 -2L1.7 -1L1.7 1L0 2L-1.7 1L-1.7 -1Z" stroke="#7a50ad" fill="none" stroke-width="1"></path></g><g transform="translate(759 21)"><path d="M0 -4L3.5 -2L3.5 2L0 4L-3.5 2L-3.5 -2Z" stroke="#7a50ad" fill="none" stroke-width="1"></path></g><g transform="translate(256 518)"><path d="M0 -7L6.1 -3.5L6.1 3.5L0 7L-6.1 3.5L-6.1 -3.5Z" stroke="#7a50ad" fill="none" stroke-width="1"></path></g><g transform="translate(632 242)"><path d="M0 -10L8.7 -5L8.7 5L0 10L-8.7 5L-8.7 -5Z" stroke="#7a50ad" fill="none" stroke-width="1"></path></g><g transform="translate(216 245)"><path d="M0 -5L4.3 -2.5L4.3 2.5L0 5L-4.3 2.5L-4.3 -2.5Z" stroke="#7a50ad" fill="none" stroke-width="1"></path></g><g transform="translate(798 262)"><path d="M0 -7L6.1 -3.5L6.1 3.5L0 7L-6.1 3.5L-6.1 -3.5Z" stroke="#7a50ad" fill="none" stroke-width="1"></path></g><g transform="translate(76 208)"><path d="M0 -10L8.7 -5L8.7 5L0 10L-8.7 5L-8.7 -5Z" stroke="#7a50ad" fill="none" stroke-width="1"></path></g><g transform="translate(461 465)"><path d="M0 -11L9.5 -5.5L9.5 5.5L0 11L-9.5 5.5L-9.5 -5.5Z" stroke="#7a50ad" fill="none" stroke-width="1"></path></g><g transform="translate(582 228)"><path d="M0 -8L6.9 -4L6.9 4L0 8L-6.9 4L-6.9 -4Z" stroke="#7a50ad" fill="none" stroke-width="1"></path></g><g transform="translate(517 204)"><path d="M0 -6L5.2 -3L5.2 3L0 6L-5.2 3L-5.2 -3Z" stroke="#7a50ad" fill="none" stroke-width="1"></path></g><g transform="translate(665 166)"><path d="M0 -11L9.5 -5.5L9.5 5.5L0 11L-9.5 5.5L-9.5 -5.5Z" stroke="#7a50ad" fill="none" stroke-width="1"></path></g><g transform="translate(725 186)"><path d="M0 -7L6.1 -3.5L6.1 3.5L0 7L-6.1 3.5L-6.1 -3.5Z" stroke="#7a50ad" fill="none" stroke-width="1"></path></g><g transform="translate(132 348)"><path d="M0 -4L3.5 -2L3.5 2L0 4L-3.5 2L-3.5 -2Z" stroke="#7a50ad" fill="none" stroke-width="1"></path></g><g transform="translate(226 339)"><path d="M0 -4L3.5 -2L3.5 2L0 4L-3.5 2L-3.5 -2Z" stroke="#7a50ad" fill="none" stroke-width="1"></path></g></g></svg>